<svg xmlns="http://www.w3.org/2000/svg" viewBox="0 0 192 192" width="192" height="192">
  <defs>
    <radialGradient id="glow" cx="50%" cy="50%" r="50%">
      <stop offset="0%" stop-color="#f59e0b" stop-opacity="0.4"/>
      <stop offset="100%" stop-color="#f59e0b" stop-opacity="0"/>
    </radialGradient>
  </defs>
  <rect width="192" height="192" rx="38" fill="#0f0f0f"/>
  <rect x="3" y="3" width="186" height="186" rx="36" fill="none" stroke="#f59e0b" stroke-width="4"/>
  <circle cx="96" cy="80" r="62" fill="url(#glow)"/>
  <circle cx="96" cy="74" r="36" fill="#f59e0b"/>
  <text x="96" y="86" font-family="Arial Black,Helvetica Neue,sans-serif" font-size="40" font-weight="900" fill="#0f0f0f" text-anchor="middle">L</text>
  <rect x="83" y="108" width="26" height="14" rx="3" fill="#f59e0b"/>
  <rect x="86" y="120" width="20" height="8" rx="2" fill="#f59e0b"/>
  <rect x="83" y="126" width="26" height="7" rx="2" fill="#f59e0b"/>
  <g stroke="rgba(245,158,11,0.35)" stroke-width="3" stroke-linecap="round">
    <line x1="96" y1="21" x2="96" y2="12"/>
    <line x1="136" y1="36" x2="143" y2="29"/>
    <line x1="148" y1="76" x2="157" y2="76"/>
    <line x1="137" y1="116" x2="144" y2="123"/>
    <line x1="55" y1="36" x2="48" y2="29"/>
    <line x1="44" y1="76" x2="35" y2="76"/>
    <line x1="55" y1="116" x2="48" y2="123"/>
  </g>
  <text x="96" y="170" font-family="Arial,Helvetica Neue,sans-serif" font-size="13" font-weight="700" fill="#f59e0b" text-anchor="middle" letter-spacing="4">LUMGUIDE</text>
</svg>
